<?xml version="1.0" encoding="utf-8"?>
<?xml-stylesheet type="text/xsl" href="rss1.xsl"?>
<rss version="2.0" xmlns:atom="http://www.w3.org/2005/Atom" xmlns:content="http://purl.org/rss/1.0/modules/content/" xmlns:dc="http://purl.org/dc/elements/1.1/" xmlns:media="http://search.yahoo.com/mrss/">
<channel>
 <title>Getty</title>
 <link>http://www.gettyimg.com/</link>
 <atom:link href="http://www.gettyimg.com/" rel="self" type="application/rss+xml" />

 
                <item>
                <title><![CDATA[【Albums (lossy)】MP3 - Yo! MTV (2024) [128-320kbits/44100Hz]]]></title>
                <link><![CDATA[https://sharemania.us/threads/yo-mtv-2024-128-320kbits-44100hz.235285/]]></link>
                <description><![CDATA[<article>
<blockquote class="messageText SelectQuoteContainer ugc baseHtml">
<div style="text-align: center"><img src="https://i.postimg.cc/5NBxg6cH/yo-cd-vitural-2024.jpg" class="bbCodeImage LbImage" alt="[​IMG]" data-url="https://i.postimg.cc/5NBxg6cH/yo-cd-vitural-2024.jpg" style="">​</div>01 Gwen Stefani - Hollaback Girl<br>
02 Sean Paul feat. Dua Lipa - No Lie<br>
03 Jennifer Lopez feat. Pitbull - On The Floor<br>
04 All Saints - Under The Bridge (Original Mix)<br>
05. Beyoncé feat. Jay-Z - Crazy In Love<br>
06 Shakira feat. Anuel AA - Me Gusta<br>
07 Mariah Carey feat. Jadakiss and Styles P - We Belong Together (Remix)<br>
08 Wanessa feat. Bam Bam - Sticky Dough<br>
09 Melanie C feat. Lisa Left Eye Lopes - Never Be the Same Again [Single Mix]<br>
10 Whitney Houston - Get It Back<br>
<br>
<span style="font-size: 9px">MTV Music Television ® All rights reserved.</span><br>
<br>
<br>
<div style="text-align: center">
<div class="bbCodeBlock bbCodeVfcHH HiddenContent">
<div class="attribution type">Hidden Content:</div>
<blockquote>You must either reply or click 'Like' to see the hidden information contained here.</blockquote>
</div></div>
<div class="messageTextEndMarker">&nbsp;</div>
</blockquote>
</article>]]></description>
                <author><![CDATA[Fan Made]]></author>
                </item>

                
                <item>
                <title><![CDATA[【Music Videos】Queen - Innuendo (1080p 5.1) (Clean)]]></title>
                <link><![CDATA[https://sharemania.us/threads/queen-innuendo-1080p-5-1-clean.235289/]]></link>
                <description><![CDATA[<article>
<blockquote class="messageText SelectQuoteContainer ugc baseHtml">
<img src="https://i.ibb.co/hCnTYNW/Queen-Innuendo-1080p-5-1-Clean-mp4-thumbs-2024-01-05-13-37-51.jpg" class="bbCodeImage LbImage" alt="[​IMG]" data-url="https://i.ibb.co/hCnTYNW/Queen-Innuendo-1080p-5-1-Clean-mp4-thumbs-2024-01-05-13-37-51.jpg" style=""> <br>
<br>
<div class="ToggleTriggerAnchor bbCodeSpoilerContainer">
<button type="button" class="button bbCodeSpoilerButton ToggleTrigger Tooltip JsOnly" data-target="> .SpoilerTarget"><span>Spoiler: <span class="SpoilerTitle">MediaInfo</span></span></button>
<div class="SpoilerTarget bbCodeSpoilerText">Queen - Innuendo (1080p 5.1) (Clean).mp4<br>
Format : MPEG-4<br>
Format profile : Base Media / Version 2<br>
Codec ID : mp42 (mp42/mp41)<br>
File size : 796 MiB<br>
Duration : 6 min 51 s<br>
Overall bit rate mode : Variable<br>
Overall bit rate : 16.2 Mb/s<br>
Frame rate : 25.000 FPS<br>
Encoded date : 2024-01-05 06:15:37 UTC<br>
Tagged date : 2024-01-05 06:16:47 UTC<br>
TIM : 00:00:00:00<br>
TSC : 25<br>
TSZ : 1<br>
<br>
Video<br>
ID : 1<br>
Format : AVC<br>
Format/Info : Advanced Video Codec<br>
Format profile : Main@L4.1<br>
Format settings : CABAC / 4 Ref Frames<br>
Format settings, CABAC : Yes<br>
Format settings, Reference : 4 frames<br>
Codec ID : avc1<br>
Codec ID/Info : Advanced Video Coding<br>
Duration : 6 min 51 s<br>
Bit rate : 15.9 Mb/s<br>
Width : 1 920 pixels<br>
Height : 1 080 pixels<br>
Display aspect ratio : 16:9<br>
Frame rate mode : Constant<br>
Frame rate : 25.000 FPS<br>
Color space : YUV<br>
Chroma subsampling : 4:2:0<br>
Bit depth : 8 bits<br>
Scan type : Progressive<br>
Bits/(Pixel*Frame) : 0.307<br>
Stream size : 781 MiB (98%)<br>
Language : English<br>
Encoded date : 2024-01-05 06:15:37 UTC<br>
Tagged date : 2024-01-05 06:15:37 UTC<br>
Color range : Limited<br>
Color primaries : BT.709<br>
Transfer characteristics : BT.709<br>
Matrix coefficients : BT.709<br>
Codec configuration box : avcC<br>
<br>
Audio<br>
ID : 2<br>
Format : AAC LC<br>
Format/Info : Advanced Audio Codec Low Complexity<br>
Codec ID : mp4a-40-2<br>
Duration : 6 min 51 s<br>
Source duration : 6 min 51 s<br>
Bit rate mode : Variable<br>
Bit rate : 317 kb/s<br>
Maximum bit rate : 1 281 kb/s<br>
Channel(s) : 6 channels<br>
Channel layout : C L R Ls Rs LFE<br>
Sampling rate : 48.0 kHz<br>
Frame rate : 46.875 FPS (1024 SPF)<br>
Compression mode : Lossy<br>
Stream size : 15.6 MiB (2%)<br>
Source stream size : 15.6 MiB (2%)<br>
Language : English<br>
Encoded date : 2024-01-05 06:15:37 UTC<br>
Tagged date : 2024-01-05 06:15:37 UTC</div>
</div><br>
<div class="bbCodeBlock bbCodeVfcHH HiddenContent">
<div class="attribution type">Hidden Content:</div>
<blockquote>You must reply before you can see the hidden data contained here.</blockquote>
</div>
<div class="messageTextEndMarker">&nbsp;</div>
</blockquote>
</article>]]></description>
                <author><![CDATA[DJ-RoGeRs-BS]]></author>
                </item>

                </channel></rss>